<svg xmlns="http://www.w3.org/2000/svg" viewBox="0 -256 1792 1792"><path d="M1233.898 685.017q0 12-10 24l-319 319q-9 9-23 9t-23-9l-320-320q-9-9-9-23 0-13 9.5-22.5t22.5-9.5h192v-352q0-13 9.5-22.5t22.5-9.5h192q13 0 22.5 9.5t9.5 22.5v352h192q14 0 23 9t9 23zm160-32q0-104-40.5-198.5t-109.5-163.5q-69-69-163.5-109.5t-198.5-40.5q-104 0-198.5 40.5t-163.5 109.5q-69 69-109.5 163.5t-40.5 198.5q0 104 40.5 198.5t109.5 163.5q69 69 163.5 109.5t198.5 40.5q104 0 198.5-40.5t163.5-109.5q69-69 109.5-163.5t40.5-198.5zm256 0q0 209-103 385.5t-279.5 279.5q-176.5 103-385.5 103t-385.5-103q-176.5-103-279.5-279.5t-103-385.5q0-209 103-385.5t279.5-279.5q176.5-103 385.5-103t385.5 103q176.5 103 279.5 279.5t103 385.5z" fill="currentColor"/></svg>