<svg xmlns="http://www.w3.org/2000/svg" height="16" width="16"><path fill="#FFF" fill-opacity=".3" fill-rule="evenodd" d="M1.846 16h12.308c1.02 0 1.846-.827 1.846-1.847V1.846C16 .826 15.174 0 14.154 0H1.846C.826 0 0 .826 0 1.846v12.307C0 15.173.827 16 1.846 16zm11.79-14.154a.64.64 0 01.641.64v1.92a.64.64 0 01-.64.64h-1.92a.64.64 0 01-.64-.64v-1.92a.64.64 0 01.64-.64h1.92zM8 4.923a3.077 3.077 0 100 6.153 3.077 3.077 0 000-6.153zm4.761 1.846h1.393v6.77a.615.615 0 01-.616.614H2.462a.615.615 0 01-.616-.615v-6.77h1.393A4.926 4.926 0 003.077 8a4.923 4.923 0 109.846 0c0-.426-.06-.837-.162-1.231z"/></svg>