<svg xmlns="http://www.w3.org/2000/svg" height="13.003" width="16"><path fill="#FFF" fill-opacity=".3" fill-rule="evenodd" d="M16 1.54a6.558 6.558 0 01-1.885.516A3.292 3.292 0 0015.558.24a6.572 6.572 0 01-2.085.797A3.286 3.286 0 007.88 4.03 9.32 9.32 0 011.115.6 3.286 3.286 0 002.13 4.983a3.268 3.268 0 01-1.487-.41c-.036 1.52 1.054 2.943 2.633 3.26a3.289 3.289 0 01-1.483.056 3.286 3.286 0 003.067 2.28A6.602 6.602 0 010 11.528a9.291 9.291 0 005.032 1.475c6.094 0 9.538-5.148 9.33-9.765A6.669 6.669 0 0016 1.54z"/></svg>